<svg width="60" height="60" viewBox="0 0 60 60" fill="none" xmlns="http://www.w3.org/2000/svg">
<path d="M56.675 0H3.325C2.44518 0.00654171 1.60325 0.358954 0.9811 0.9811C0.358954 1.60325 0.00654171 2.44518 0 3.325V56.675C0.00654171 57.5548 0.358954 58.3968 0.9811 59.0189C1.60325 59.641 2.44518 59.9935 3.325 60H32.05V36.8H24.25V27.725H32.05V21.05C32.05 13.3 36.775 9.075 43.725 9.075C46.05 9.075 48.375 9.075 50.7 9.425V17.5H45.925C42.15 17.5 41.425 19.3 41.425 21.925V27.7H50.425L49.25 36.775H41.425V60H56.675C57.5548 59.9935 58.3968 59.641 59.0189 59.0189C59.641 58.3968 59.9935 57.5548 60 56.675V3.325C59.9935 2.44518 59.641 1.60325 59.0189 0.9811C58.3968 0.358954 57.5548 0.00654171 56.675 0Z" fill="#F8F8F8"/>
</svg>
