<svg width="80" height="80" viewBox="0 0 80 80" fill="none" xmlns="http://www.w3.org/2000/svg">
<g filter="url(#filter0_d_6_52)">
<path d="M49.6 40C49.6 41.8987 49.037 43.7548 47.9821 45.3335C46.9272 46.9122 45.4279 48.1426 43.6738 48.8692C41.9196 49.5958 39.9894 49.786 38.1271 49.4155C36.2649 49.0451 34.5544 48.1308 33.2118 46.7882C31.8692 45.4456 30.9549 43.7351 30.5845 41.8729C30.214 40.0107 30.4042 38.0804 31.1308 36.3262C31.8574 34.5721 33.0878 33.0728 34.6665 32.0179C36.2452 30.963 38.1013 30.4 40 30.4C42.5436 30.4079 44.9809 31.4219 46.7795 33.2205C48.5781 35.0192 49.5921 37.4564 49.6 40ZM70 26.8V53.2C70 57.6556 68.23 61.9288 65.0794 65.0794C61.9288 68.23 57.6556 70 53.2 70H26.8C22.3444 70 18.0712 68.23 14.9206 65.0794C11.77 61.9288 10 57.6556 10 53.2V26.8C10 22.3444 11.77 18.0712 14.9206 14.9206C18.0712 11.77 22.3444 10 26.8 10H53.2C57.6556 10 61.9288 11.77 65.0794 14.9206C68.23 18.0712 70 22.3444 70 26.8ZM54.4 40C54.4 37.152 53.5555 34.3679 51.9732 31.9998C50.3909 29.6317 48.1419 27.786 45.5106 26.6961C42.8794 25.6062 39.984 25.3211 37.1907 25.8767C34.3974 26.4323 31.8315 27.8038 29.8177 29.8177C27.8038 31.8315 26.4323 34.3974 25.8767 37.1907C25.3211 39.984 25.6062 42.8794 26.6961 45.5106C27.786 48.1419 29.6317 50.3909 31.9998 51.9732C34.3679 53.5555 37.152 54.4 40 54.4C43.8191 54.4 47.4818 52.8829 50.1823 50.1823C52.8829 47.4818 54.4 43.8191 54.4 40ZM59.2 24.4C59.2 23.688 58.9889 22.992 58.5933 22.3999C58.1977 21.8079 57.6355 21.3465 56.9777 21.074C56.3198 20.8016 55.596 20.7303 54.8977 20.8692C54.1993 21.0081 53.5579 21.3509 53.0544 21.8544C52.5509 22.3579 52.2081 22.9993 52.0692 23.6977C51.9303 24.396 52.0016 25.1198 52.274 25.7777C52.5465 26.4355 53.0079 26.9977 53.5999 27.3933C54.192 27.7889 54.888 28 55.6 28C56.5548 28 57.4705 27.6207 58.1456 26.9456C58.8207 26.2705 59.2 25.3548 59.2 24.4Z" fill="#F8F8F8"/>
</g>
<defs>
<filter id="filter0_d_6_52" x="0" y="0" width="80" height="80" filterUnits="userSpaceOnUse" color-interpolation-filters="sRGB">
<feFlood flood-opacity="0" result="BackgroundImageFix"/>
<feColorMatrix in="SourceAlpha" type="matrix" values="0 0 0 0 0 0 0 0 0 0 0 0 0 0 0 0 0 0 127 0" result="hardAlpha"/>
<feOffset/>
<feGaussianBlur stdDeviation="5"/>
<feComposite in2="hardAlpha" operator="out"/>
<feColorMatrix type="matrix" values="0 0 0 0 0 0 0 0 0 0 0 0 0 0 0 0 0 0 0.55 0"/>
<feBlend mode="normal" in2="BackgroundImageFix" result="effect1_dropShadow_6_52"/>
<feBlend mode="normal" in="SourceGraphic" in2="effect1_dropShadow_6_52" result="shape"/>
</filter>
</defs>
</svg>
