<svg width="93" height="90" viewBox="0 0 93 90" fill="none" xmlns="http://www.w3.org/2000/svg">
<path d="M53.424 87.256C42.5867 88.7067 31.408 89.432 19.888 89.432C16.9013 89.432 14.1707 89.3467 11.696 89.176C9.30667 89.0053 7.04533 88.5787 4.912 87.896C2.77867 87.2987 1.584 86.7013 1.328 86.104C1.072 85.5067 0.944 84.1413 0.944 82.008H14.512L14.384 72.152V68.312C14.384 67.1173 14.4693 66.0507 14.64 65.112L14.128 49.752C11.1413 49.24 9.34933 48.8133 8.752 48.472C8.24 48.0453 7.984 47.5333 7.984 46.936C7.984 46.2533 8.24 45.6133 8.752 45.016C9.17867 44.3333 9.73333 43.6507 10.416 42.968C12.2933 41.0907 13.3173 39.8107 13.488 39.128C13.6587 38.4453 13.9147 36.9947 14.256 34.776C14.5973 32.472 14.9387 29.9547 15.28 27.224L16.304 19.544C16.6453 17.1547 16.7733 15.6613 16.688 15.064L16.432 7L6.32 7.64C4.528 7.64 3.632 6.70133 3.632 4.824C3.54667 4.39733 4.18667 3.928 5.552 3.41599C7.77067 2.56266 9.392 2.13599 10.416 2.13599L13.232 2.26399L51.76 0.471992C55.4293 0.471992 57.264 1.36799 57.264 3.16C57.264 4.952 56.0267 6.01866 53.552 6.35999C49.2853 6.95733 46.768 7.42666 46 7.768C45.6587 8.70666 45.4027 9.43199 45.232 9.94399C44.464 11.9067 43.9947 13.6987 43.824 15.32L43.312 20.696C43.056 22.6587 42.8 24.7493 42.544 26.968C42.3733 29.1013 42.16 31.1493 41.904 33.112C41.7333 34.9893 41.5627 36.6107 41.392 37.976C41.3067 39.3413 41.136 40.7067 40.88 42.072C40.368 44.8027 40.112 50.2213 40.112 58.328L40.24 73.688C40.24 75.8213 40.496 77.528 41.008 78.808C41.6053 80.0027 43.2267 80.6 45.872 80.6L55.216 81.24C57.264 81.24 58.8 81.0267 59.824 80.6L62.896 79.064C63.92 78.6373 64.944 78.1253 65.968 77.528C68.784 75.992 70.5333 74.8827 71.216 74.2L74.928 70.616C76.464 68.824 78.1707 66.9467 80.048 64.984L88.752 55.64C91.312 56.5787 92.592 59.224 92.592 63.576C92.592 66.8187 91.9947 70.5307 90.8 74.712C89.6907 78.8933 88.752 81.7947 87.984 83.416C86.192 87.1707 84.3147 89.048 82.352 89.048C78.3413 89.048 74.3733 88.7067 70.448 88.024C66.608 87.4267 63.5787 87.128 61.36 87.128H57.264L54.192 87.256H53.424Z" fill="white"/>
</svg>
