<svg width="60" height="60" viewBox="0 0 60 60" fill="none" xmlns="http://www.w3.org/2000/svg">
<path d="M54 0H6C2.7 0 0 3.375 0 7.5V52.5C0 56.625 2.7 60 6 60H54C57.3 60 60 56.625 60 52.5V7.5C60 3.375 57.3 0 54 0ZM52.8 15.9375L33.18 31.275C31.23 32.8125 28.77 32.8125 26.82 31.275L7.2 15.9375C6.89918 15.7264 6.63576 15.4412 6.42567 15.0992C6.21557 14.7572 6.06319 14.3654 5.97773 13.9476C5.89227 13.5299 5.87551 13.0948 5.92847 12.6687C5.98143 12.2425 6.10301 11.8343 6.28584 11.4686C6.46868 11.103 6.70897 10.7875 6.99218 10.5412C7.27538 10.295 7.59561 10.1232 7.93349 10.0361C8.27136 9.94907 8.61985 9.94863 8.95786 10.0348C9.29588 10.121 9.61639 10.292 9.9 10.5375L30 26.25L50.1 10.5375C50.3836 10.292 50.7041 10.121 51.0421 10.0348C51.3802 9.94863 51.7286 9.94907 52.0665 10.0361C52.4044 10.1232 52.7246 10.295 53.0078 10.5412C53.291 10.7875 53.5313 11.103 53.7142 11.4686C53.897 11.8343 54.0186 12.2425 54.0715 12.6687C54.1245 13.0948 54.1077 13.5299 54.0223 13.9476C53.9368 14.3654 53.7844 14.7572 53.5743 15.0992C53.3642 15.4412 53.1008 15.7264 52.8 15.9375Z" fill="#F8F8F8"/>
</svg>
